<?xml version="1.0" standalone="no"?>
<!DOCTYPE svg PUBLIC "-//W3C//DTD SVG 20010904//EN"
 "http://www.w3.org/TR/2001/REC-SVG-20010904/DTD/svg10.dtd">
<svg version="1.0" xmlns="http://www.w3.org/2000/svg"
 width="512.000000pt" height="512.000000pt" viewBox="0 0 512.000000 512.000000"
 preserveAspectRatio="xMidYMid meet">
<metadata>
Created by potrace 1.14, written by Peter Selinger 2001-2017
</metadata>
<g transform="translate(0.000000,512.000000) scale(0.100000,-0.100000)"
fill="#000000" stroke="none">
<path d="M1993 5067 c-2 -4 -9 -5 -14 -2 -5 4 -9 2 -9 -3 0 -13 -33 -10 -42 3
-5 6 -8 5 -8 -3 0 -7 -4 -10 -10 -7 -5 3 -10 0 -10 -7 0 -9 -3 -9 -10 2 -6 9
-10 11 -10 3 0 -7 -7 -10 -15 -7 -8 4 -15 1 -15 -4 0 -6 -9 -9 -20 -7 -11 2
-20 -1 -20 -6 0 -6 -4 -8 -9 -4 -5 3 -13 0 -17 -6 -4 -8 -9 -7 -15 2 -5 8 -9
9 -9 4 0 -6 -12 -12 -27 -13 -15 -1 -29 -6 -32 -11 -3 -4 -14 -7 -23 -5 -10 1
-18 -2 -18 -7 0 -5 -8 -9 -17 -9 -10 0 -30 -6 -44 -14 -14 -7 -38 -16 -53 -20
-16 -4 -35 -14 -43 -22 -8 -8 -19 -12 -24 -9 -5 4 -9 1 -9 -5 0 -6 -4 -9 -9
-6 -5 3 -11 -1 -15 -9 -3 -8 -12 -12 -21 -9 -8 3 -15 2 -15 -3 0 -5 -16 -15
-35 -22 -19 -7 -35 -17 -35 -22 0 -5 -7 -9 -15 -9 -8 0 -15 -4 -15 -10 0 -5
-5 -10 -12 -10 -18 0 -88 -51 -83 -61 3 -4 -4 -6 -15 -4 -11 2 -20 -1 -20 -7
0 -6 -3 -8 -7 -5 -3 4 -13 -2 -20 -13 -8 -11 -19 -18 -24 -15 -5 4 -9 -2 -9
-11 0 -10 -2 -15 -5 -12 -8 7 -70 -48 -175 -153 -107 -108 -153 -159 -143
-159 5 -1 -2 -6 -14 -13 -12 -7 -22 -16 -21 -20 0 -5 -11 -21 -25 -37 -14 -15
-23 -31 -20 -34 4 -3 1 -6 -6 -6 -7 0 -9 -4 -6 -10 3 -5 1 -10 -4 -10 -6 0
-11 -5 -11 -10 0 -6 -13 -24 -30 -41 -16 -18 -27 -35 -25 -39 3 -4 -2 -11 -11
-14 -8 -3 -12 -10 -9 -16 3 -5 1 -10 -4 -10 -6 0 -11 -7 -11 -15 0 -9 -7 -18
-15 -21 -8 -4 -13 -10 -10 -14 3 -4 -2 -11 -11 -14 -8 -3 -12 -10 -9 -16 3 -5
1 -10 -5 -10 -6 0 -8 -4 -5 -10 3 -5 1 -10 -6 -10 -7 0 -10 -3 -6 -6 3 -4 -5
-21 -18 -38 -13 -17 -27 -43 -30 -58 -4 -16 -11 -28 -17 -28 -5 0 -7 -4 -4 -9
3 -5 -1 -12 -10 -15 -9 -3 -14 -13 -10 -21 3 -8 -1 -21 -9 -29 -8 -7 -11 -16
-8 -20 4 -3 1 -6 -6 -6 -7 0 -9 -4 -6 -10 3 -5 1 -10 -6 -10 -7 0 -9 -3 -6 -6
3 -4 0 -16 -8 -28 -8 -11 -15 -28 -15 -38 0 -10 -5 -18 -11 -18 -5 0 -7 -4 -4
-10 3 -5 1 -10 -5 -10 -6 0 -8 -4 -5 -10 3 -5 2 -10 -4 -10 -6 0 -8 -7 -5 -15
4 -8 1 -15 -5 -15 -6 0 -11 -8 -11 -18 0 -10 -6 -24 -12 -31 -10 -11 -10 -12
-1 -7 9 5 11 2 7 -8 -3 -9 -11 -16 -16 -16 -6 0 -8 -7 -4 -15 3 -8 1 -15 -4
-15 -5 0 -7 -9 -5 -20 2 -11 0 -18 -6 -15 -8 5 -14 -15 -10 -37 0 -5 -4 -8
-10 -8 -5 0 -8 -4 -5 -9 3 -5 -1 -25 -9 -44 -8 -19 -11 -37 -8 -41 4 -3 0 -6
-7 -6 -7 0 -10 -3 -7 -6 3 -4 2 -15 -4 -26 -10 -19 -21 -60 -22 -85 0 -7 -3
-13 -6 -13 -6 0 -11 -26 -14 -67 0 -7 -4 -13 -8 -13 -4 0 -6 -9 -4 -20 2 -11
-2 -20 -8 -20 -7 0 -6 -4 3 -10 11 -7 11 -10 2 -10 -7 0 -11 -4 -7 -9 3 -5 0
-13 -6 -16 -5 -4 -8 -13 -5 -21 3 -8 2 -14 -3 -14 -5 0 -8 -6 -8 -12 2 -33
-17 -118 -26 -118 -8 0 -7 -4 0 -11 8 -8 8 -20 2 -36 -5 -14 -7 -29 -3 -34 3
-5 1 -9 -4 -9 -5 0 -8 -10 -7 -22 1 -13 -2 -31 -7 -40 -6 -12 -5 -18 3 -18 8
0 7 -5 -2 -17 -12 -15 -12 -16 1 -8 12 7 13 6 3 -7 -7 -8 -10 -18 -6 -21 3 -4
2 -7 -3 -7 -5 0 -9 -13 -9 -29 0 -16 3 -27 7 -24 5 2 3 -8 -2 -22 -6 -15 -8
-31 -4 -36 3 -5 0 -9 -6 -9 -8 0 -11 -20 -8 -60 1 -33 -1 -60 -5 -60 -5 0 -6
-4 -2 -9 3 -5 0 -13 -6 -17 -8 -5 -8 -9 1 -14 8 -5 9 -13 4 -21 -12 -20 -14
-39 -3 -39 6 0 7 -6 3 -12 -11 -18 -12 -48 -2 -48 5 0 4 -9 -2 -20 -8 -14 -8
-20 0 -20 8 0 8 -6 0 -20 -6 -12 -7 -20 -1 -20 10 0 9 -19 -2 -37 -5 -8 -3
-13 3 -13 6 0 8 -5 3 -12 -12 -20 -12 -38 -1 -38 7 0 7 -4 0 -13 -7 -8 -7 -18
-2 -27 6 -8 10 -32 10 -52 0 -21 4 -38 10 -38 5 0 9 -3 9 -7 -1 -5 -1 -10 0
-13 3 -6 11 -70 13 -90 0 -8 5 -21 11 -27 6 -9 5 -13 -3 -13 -9 0 -8 -6 4 -19
10 -11 15 -25 11 -30 -3 -6 -2 -11 4 -11 6 0 8 -7 5 -15 -4 -8 -1 -15 5 -15 6
0 8 -6 5 -14 -3 -8 0 -17 5 -21 6 -3 9 -11 6 -16 -4 -5 -1 -9 5 -9 6 0 9 -4 5
-9 -3 -5 -1 -12 5 -16 6 -4 8 -11 5 -16 -4 -5 -1 -9 5 -9 6 0 8 -5 5 -10 -3
-5 -2 -10 3 -10 9 0 23 -31 26 -55 1 -5 5 -13 10 -17 5 -3 11 -15 12 -25 2 -9
8 -19 14 -21 5 -2 8 -8 4 -13 -3 -5 0 -9 5 -9 6 0 11 -7 11 -15 0 -7 8 -18 17
-24 10 -5 16 -11 14 -13 -7 -6 10 -48 20 -48 5 0 9 -7 9 -15 0 -8 5 -15 10
-15 6 0 10 -5 10 -11 0 -7 10 -20 22 -30 11 -11 17 -19 13 -19 -5 0 0 -7 11
-16 10 -8 12 -12 4 -8 -8 5 10 -21 40 -56 30 -36 58 -67 63 -68 4 -2 5 -8 1
-13 -3 -5 1 -9 9 -9 16 0 58 -46 50 -54 -4 -3 0 -6 8 -6 8 0 20 -9 27 -20 7
-12 17 -18 22 -15 6 3 7 -1 4 -9 -4 -11 0 -16 10 -16 9 0 16 -4 16 -10 0 -5 4
-10 10 -10 13 0 59 -48 52 -54 -3 -3 1 -6 10 -6 8 0 25 -11 37 -24 14 -15 29
-22 39 -19 10 4 13 2 8 -5 -4 -7 -1 -12 8 -12 9 0 16 -7 16 -16 0 -8 4 -13 8
-10 5 3 23 -8 40 -23 17 -16 33 -26 36 -23 3 2 14 -6 25 -19 11 -13 20 -20 21
-16 0 4 12 -3 27 -17 15 -14 30 -23 35 -20 4 3 8 1 8 -4 0 -12 80 -53 91 -46
5 3 9 -2 9 -11 0 -9 5 -13 10 -10 5 3 10 2 10 -3 0 -9 89 -54 104 -52 5 1 13
-5 18 -14 5 -9 13 -14 19 -11 5 4 9 1 9 -6 0 -7 3 -9 6 -6 4 4 20 -3 37 -15
19 -13 28 -16 23 -7 -4 7 0 5 8 -5 9 -11 19 -17 22 -13 4 3 13 -1 21 -9 8 -8
19 -12 24 -9 5 4 9 1 9 -4 0 -6 9 -11 20 -11 11 0 20 -5 20 -11 0 -6 7 -9 15
-6 8 4 17 2 20 -4 4 -5 11 -7 16 -4 5 4 9 1 9 -5 0 -6 4 -9 8 -6 5 3 27 -6 50
-19 24 -13 40 -19 36 -12 -5 9 -3 9 7 -1 7 -6 21 -12 31 -12 10 0 18 -4 18 -8
0 -4 9 -9 20 -10 11 -1 29 -3 40 -4 11 -1 20 -5 20 -9 0 -6 39 -20 62 -23 3
-1 9 -4 13 -8 4 -4 13 -4 21 -1 8 3 14 1 14 -5 0 -5 12 -9 26 -9 15 0 30 -7
35 -14 7 -12 9 -11 9 1 0 13 2 13 9 1 5 -8 16 -11 25 -8 8 3 18 2 21 -4 4 -5
11 -7 16 -4 5 4 9 1 9 -6 0 -8 5 -7 17 2 11 10 14 10 9 1 -7 -11 16 -17 52
-13 6 1 12 -3 12 -9 0 -5 13 -10 29 -10 17 0 33 -5 37 -11 4 -8 9 -7 15 2 5 8
9 9 9 4 0 -6 15 -12 33 -13 17 -2 33 -7 35 -12 2 -5 13 -5 28 0 19 7 23 7 18
-2 -5 -7 -2 -9 8 -5 9 3 21 0 27 -6 8 -8 11 -7 11 3 0 13 2 13 10 0 5 -8 10
-11 10 -6 0 5 8 2 17 -5 15 -12 16 -12 8 1 -8 13 -7 13 8 1 13 -10 17 -10 17
-1 0 10 3 10 15 0 8 -7 15 -9 15 -4 0 5 5 2 10 -6 5 -8 10 -10 10 -4 0 9 11 9
38 3 20 -4 38 -8 40 -9 1 0 3 0 5 -1 36 -11 97 -16 91 -8 -3 5 0 9 5 9 6 0 11
-4 11 -8 0 -5 6 -9 13 -10 6 -1 23 -3 37 -5 14 -2 37 0 53 4 15 4 27 4 27 0 0
-4 15 -8 33 -10 72 -6 97 -6 97 1 0 3 14 3 30 -2 17 -5 30 -5 30 -1 0 5 10 7
23 5 45 -8 157 -9 157 -2 0 3 14 3 30 -2 17 -5 30 -5 30 0 0 5 6 7 14 4 8 -3
17 -1 21 5 4 8 12 8 25 1 13 -7 21 -7 25 0 4 6 11 8 16 5 5 -4 9 -1 9 6 0 8 4
8 15 -1 10 -9 15 -9 15 -1 0 6 3 10 8 9 4 0 15 2 24 6 10 4 23 6 30 4 7 -3 18
2 25 11 9 11 12 12 13 3 0 -10 5 -10 20 -2 11 6 25 8 30 5 6 -3 10 -1 10 5 0
6 4 9 9 5 5 -3 12 -1 16 5 4 6 11 8 16 5 5 -4 9 -1 9 6 0 7 3 9 7 6 3 -4 13
-1 21 6 13 10 14 9 7 -2 -5 -8 6 -5 23 8 18 12 32 20 32 16 0 -3 10 0 23 7 12
7 25 11 30 10 4 -1 7 2 7 6 0 5 7 9 15 10 8 1 22 3 30 4 8 1 12 4 10 8 -2 4
18 17 45 30 28 13 50 27 50 32 0 5 5 6 10 3 6 -3 10 -1 10 5 0 6 5 8 10 5 6
-3 10 -1 10 5 0 6 5 8 10 5 6 -3 10 -1 10 4 0 6 5 11 10 11 6 0 20 9 32 20 12
10 24 17 28 15 5 -3 11 2 14 11 3 8 10 13 15 9 5 -3 12 4 16 15 3 11 9 19 13
19 20 -3 32 2 27 11 -3 5 -2 10 3 10 14 0 92 66 86 73 -3 2 9 9 25 15 17 6 31
15 31 20 0 5 15 20 34 33 19 13 32 27 30 31 -3 4 0 8 6 8 6 0 8 5 5 10 -3 6
-1 10 5 10 6 0 9 3 7 8 -3 4 1 13 9 20 8 7 14 10 14 7 0 -3 14 10 31 29 18 21
27 40 23 47 -4 7 -3 9 2 6 5 -3 19 6 29 19 11 14 28 33 38 42 9 9 17 21 17 26
0 6 12 23 27 39 16 17 21 26 13 22 -8 -5 -3 3 13 18 15 14 27 33 27 42 0 8 5
15 11 15 5 0 7 5 4 10 -3 6 -1 10 5 10 6 0 8 5 5 10 -3 6 1 13 10 16 9 4 14
13 11 21 -3 7 1 16 9 19 8 4 15 12 15 20 0 8 5 14 11 14 5 0 8 4 5 9 -3 5 1
14 9 21 8 7 15 19 15 26 0 8 5 14 11 14 5 0 8 4 5 9 -7 10 16 61 27 61 5 0 5
5 2 10 -3 6 -1 10 5 10 6 0 8 5 5 11 -4 6 2 19 14 30 12 11 19 24 16 30 -4 5
-2 9 4 9 6 0 8 6 5 14 -3 7 2 20 10 29 8 8 12 17 9 21 -4 3 -2 6 4 6 6 0 14
16 17 35 4 19 11 35 17 35 6 0 8 4 5 9 -3 5 1 25 9 44 8 19 11 37 8 41 -4 3
-1 6 5 6 7 0 12 9 12 20 0 11 6 20 13 20 9 0 8 3 -2 9 -9 6 -10 11 -2 15 6 4
9 12 6 17 -4 5 -1 9 5 9 7 0 10 7 6 15 -3 8 -1 15 3 15 9 0 27 72 24 98 0 6 3
12 8 12 5 0 8 3 8 8 -1 4 0 9 1 12 1 3 3 12 5 20 8 38 11 45 20 52 6 5 5 8 -3
8 -9 0 -10 5 -3 18 5 10 11 29 13 43 2 13 7 30 12 38 7 10 5 12 -3 6 -10 -6
-11 -3 -2 13 6 11 11 32 11 46 0 14 6 26 13 26 8 0 8 3 2 8 -12 8 -13 22 -3
37 4 6 5 23 4 38 -2 15 1 27 5 27 5 0 9 5 9 11 0 5 -5 7 -12 3 -7 -5 -8 -3 -3
7 5 7 10 22 11 33 0 11 5 21 11 23 6 2 7 21 3 48 -4 24 -3 42 2 39 5 -3 7 6 4
20 -3 14 0 28 5 31 5 4 5 14 -1 26 -8 14 -7 19 1 19 9 0 9 3 0 14 -8 10 -9 16
-1 21 7 4 7 12 0 26 -7 13 -7 19 0 19 5 0 10 5 10 11 0 5 -6 7 -12 3 -9 -5 -9
-2 1 9 11 14 11 17 0 17 -11 0 -11 2 1 10 8 5 10 10 3 10 -9 0 -11 27 -3 38 7
7 5 29 -2 45 -6 11 -5 17 3 17 9 0 9 3 0 14 -8 10 -9 16 -1 21 7 4 7 12 0 26
-8 14 -7 19 1 19 9 0 9 3 0 14 -8 10 -9 16 -1 21 7 4 7 12 0 26 -8 14 -7 19 1
19 7 0 5 8 -6 20 -14 15 -15 20 -4 20 11 0 11 2 -1 10 -8 5 -10 10 -4 10 7 0
9 11 6 25 -2 14 -9 25 -15 25 -6 0 -7 3 -4 6 3 4 2 15 -3 25 -7 12 -6 19 3 22
9 4 9 6 0 6 -7 1 -10 8 -7 16 4 8 2 15 -3 15 -5 0 -9 9 -10 20 -1 13 3 18 10
14 7 -3 3 2 -7 10 -11 9 -14 16 -8 16 9 0 7 8 -4 25 -13 20 -13 25 -3 25 9 0
10 3 3 8 -10 6 -22 40 -31 87 -2 10 -7 22 -11 25 -7 5 -14 27 -15 48 0 6 -4
12 -8 12 -5 0 -6 7 -3 15 4 8 1 15 -7 15 -7 0 -9 3 -6 7 4 3 0 17 -9 31 -9 13
-11 21 -5 18 7 -5 9 -1 5 8 -3 9 -10 16 -14 16 -8 0 -23 38 -21 53 1 4 -3 7
-7 7 -4 0 -8 9 -9 19 -1 11 -13 38 -27 60 -14 22 -26 45 -26 51 0 5 -5 10 -11
10 -5 0 -7 5 -4 10 3 6 1 10 -5 10 -6 0 -8 5 -5 10 3 6 3 10 -2 10 -4 0 -17
18 -27 40 -11 22 -23 40 -28 40 -5 0 -6 5 -3 10 3 6 1 10 -4 10 -6 0 -11 6
-11 13 0 7 -16 32 -35 54 -19 23 -35 49 -35 58 0 9 -5 13 -11 10 -6 -4 -13 2
-16 14 -3 12 -9 21 -14 21 -5 0 -9 4 -9 10 0 8 -40 56 -97 117 -13 13 -23 27
-23 30 0 3 -13 18 -29 34 -16 15 -27 30 -23 33 3 3 1 6 -5 6 -5 0 -23 12 -39
28 -30 28 -36 32 -54 32 -5 0 -10 7 -10 15 0 8 -4 15 -9 15 -5 0 -22 12 -38
28 -58 53 -108 93 -116 92 -5 -1 -17 10 -27 23 -11 14 -31 28 -45 31 -14 4
-24 12 -22 18 1 7 -3 12 -10 13 -6 0 -23 10 -37 23 -15 12 -31 22 -36 22 -6 0
-10 5 -10 10 0 6 -9 10 -20 10 -11 0 -23 7 -26 15 -4 8 -10 12 -15 9 -5 -3 -9
0 -9 5 0 6 -7 11 -15 11 -8 0 -15 5 -15 11 0 5 -4 8 -10 4 -5 -3 -18 3 -30 15
-11 11 -20 17 -20 13 0 -3 -10 2 -22 13 -14 13 -19 14 -14 4 5 -9 2 -8 -7 2
-8 10 -17 15 -20 11 -4 -3 -7 -1 -7 6 0 7 -4 9 -10 6 -5 -3 -10 -1 -10 4 0 6
-9 11 -20 11 -11 0 -20 5 -20 11 0 5 -4 8 -9 4 -5 -3 -16 1 -24 9 -8 8 -17 12
-21 9 -3 -4 -6 -1 -6 6 0 7 -4 9 -10 6 -5 -3 -10 -1 -10 4 0 6 -9 11 -19 11
-11 0 -23 5 -26 10 -3 6 -15 10 -25 10 -10 0 -20 5 -22 11 -2 6 -15 12 -30 12
-14 1 -24 5 -21 10 4 6 -15 11 -44 10 -7 -1 -13 3 -13 7 0 5 -17 14 -37 21
-21 6 -44 17 -52 23 -12 9 -13 8 -6 -3 9 -16 -7 -8 -39 18 -11 9 -16 10 -12 4
4 -7 2 -13 -3 -13 -6 0 -11 5 -11 11 0 5 -4 8 -9 4 -5 -3 -12 -1 -16 5 -4 6
-11 8 -16 5 -5 -4 -9 -2 -9 2 0 5 -8 9 -17 10 -20 1 -28 3 -127 32 -38 11 -73
18 -77 15 -5 -3 -9 -1 -9 4 0 5 -9 12 -20 15 -11 3 -20 0 -20 -5 0 -6 -6 -6
-15 2 -8 6 -18 9 -23 6 -6 -3 -15 1 -22 10 -8 8 -16 11 -19 5 -4 -5 -20 -4
-44 4 -20 7 -37 9 -37 5 0 -4 -17 -2 -37 5 -24 8 -39 10 -42 4 -1 -6 -12 -2
-24 8 -14 12 -18 13 -12 3 8 -13 6 -13 -8 -2 -9 8 -31 12 -50 11 -19 -2 -42 3
-51 10 -9 8 -16 9 -16 3 0 -7 -10 -8 -30 -2 -16 5 -30 6 -30 2 0 -4 -22 -7
-50 -7 -27 0 -50 2 -50 5 0 5 -72 8 -273 13 -44 1 -81 -1 -84 -6z"/>
</g>
</svg>
